<svg version="1.1" xmlns="http://www.w3.org/2000/svg" xmlns:xlink="http://www.w3.org/1999/xlink" width="175.94715" height="93.02942" viewBox="0,0,175.94715,93.02942"><g transform="translate(-148.24809,-137.84335)"><g data-paper-data="{&quot;isPaintingLayer&quot;:true}" fill-rule="nonzero" stroke-linejoin="miter" stroke-miterlimit="10" stroke-dasharray="" stroke-dashoffset="0" style="mix-blend-mode: normal"><path d="M169.23317,202.94291c-8.04656,-1.34356 -20.16762,-12.09877 -19.983,-28.8467c0.1859,-16.86338 10.66986,-28.92363 24.36855,-31.6147c50.86578,-9.99242 146.75331,3.76726 146.75331,3.76726l0.15519,48.85281c0,0 -102.99148,15.90656 -151.29405,7.84133z" fill="#373737" stroke="#333333" stroke-width="2" stroke-linecap="round"/><path d="M321.85535,142.21164c0.0702,1.83209 0.58989,58.63806 0.58989,58.63806" fill="none" stroke="#333333" stroke-width="3.5" stroke-linecap="round"/><path d="M172.12747,204.64969c-1.2926,-12.87571 8.09738,-24.36139 20.97309,-25.65398c12.87571,-1.2926 24.36138,8.09738 25.65397,20.97308c1.2926,12.87571 -8.09737,24.36139 -20.97308,25.65398c-12.87571,1.2926 -24.36138,-8.09737 -25.65398,-20.97308z" fill="#f1eadd" stroke="#000000" stroke-width="10.5" stroke-linecap="butt"/></g></g></svg>